<svg xmlns="http://www.w3.org/2000/svg" width="1200" height="630" viewBox="0 0 1200 630">
  <defs>
    <linearGradient id="bg" x1="0%" y1="0%" x2="100%" y2="100%">
      <stop offset="0%" style="stop-color:#1e3a5f"/>
      <stop offset="100%" style="stop-color:#2563eb"/>
    </linearGradient>
  </defs>
  <rect width="1200" height="630" fill="url(#bg)"/>
  
  <!-- House icon -->
  <g transform="translate(100, 200)">
    <rect width="120" height="120" rx="8" fill="#ffffff" opacity="0.15"/>
    <path d="M60 20 L100 50 L96 50 L96 100 L76 100 L76 70 L44 70 L44 100 L24 100 L24 50 L20 50 Z" fill="white"/>
    <rect x="52" y="70" width="16" height="30" fill="#93c5fd" rx="2"/>
  </g>
  
  <!-- Building icon -->
  <g transform="translate(280, 170)">
    <rect width="100" height="150" rx="8" fill="#ffffff" opacity="0.15"/>
    <rect x="10" y="10" width="80" height="130" rx="4" fill="white"/>
    <rect x="20" y="20" width="25" height="25" rx="2" fill="#93c5fd"/>
    <rect x="55" y="20" width="25" height="25" rx="2" fill="#93c5fd"/>
    <rect x="20" y="55" width="25" height="25" rx="2" fill="#93c5fd"/>
    <rect x="55" y="55" width="25" height="25" rx="2" fill="#93c5fd"/>
    <rect x="20" y="90" width="25" height="25" rx="2" fill="#93c5fd"/>
    <rect x="55" y="90" width="25" height="25" rx="2" fill="#93c5fd"/>
  </g>
  
  <!-- Title -->
  <text x="440" y="260" font-family="Arial, sans-serif" font-size="64" font-weight="bold" fill="white">MLS Israel</text>
  <text x="440" y="330" font-family="Arial, sans-serif" font-size="28" fill="#93c5fd">New Construction Projects in Israel</text>
  
  <!-- Subtitle -->
  <text x="440" y="390" font-family="Arial, sans-serif" font-size="20" fill="#bfdbfe" opacity="0.8">Discover apartments, houses &amp; villas in new developments</text>
  
  <!-- Bottom bar -->
  <rect x="0" y="580" width="1200" height="50" fill="#1e40af" opacity="0.5"/>
  <text x="600" y="612" font-family="Arial, sans-serif" font-size="18" fill="#bfdbfe" text-anchor="middle">mls-israel.com</text>
</svg>